<svg xmlns="http://www.w3.org/2000/svg" x="0px" y="0px"
width="32" height="32"
viewBox="0 0 224 224"
style=" fill:#000000;"><g fill="none" fill-rule="nonzero" stroke="none" stroke-width="1" stroke-linecap="butt" stroke-linejoin="miter" stroke-miterlimit="10" stroke-dasharray="" stroke-dashoffset="0" font-family="none" font-weight="none" font-size="none" text-anchor="none" style="mix-blend-mode: normal"><path d="M0,224v-224h224v224z" fill="none"></path><g fill="#141e55"><path d="M112,8.96c-56.85436,0 -103.04,46.18564 -103.04,103.04c0,56.85436 46.18564,103.04 103.04,103.04c56.85436,0 103.04,-46.18564 103.04,-103.04c0,-56.85436 -46.18564,-103.04 -103.04,-103.04zM112,17.92c52.01201,0 94.08,42.06799 94.08,94.08c0,52.01201 -42.06799,94.08 -94.08,94.08c-52.01201,0 -94.08,-42.06799 -94.08,-94.08c0,-52.01201 42.06799,-94.08 94.08,-94.08zM113.295,56.035c-16.7104,0 -27.79028,10.12536 -30.205,25.55c-0.1568,0.96768 0.31857,1.60622 1.28625,1.7675l10.12375,1.77625c0.96768,0.16128 1.60622,-0.32305 1.7675,-1.28625c1.9264,-9.80224 7.70791,-15.26875 16.70375,-15.26875c9.1616,0 15.58375,5.78788 15.58375,14.945c0,5.4656 -1.92458,9.15992 -7.5425,16.87l-10.77125,14.77875c-3.37344,4.66368 -4.8125,8.03922 -4.8125,14.4725v6.58c0,0.9632 0.63805,1.61042 1.60125,1.5925h10.605c0.9632,0 1.60125,-0.63805 1.60125,-1.60125v-5.13625c0,-5.46112 0.97034,-7.71211 4.1825,-12.04875l10.7625,-14.7875c5.4656,-7.55328 8.19,-13.17169 8.19,-20.88625c0,-15.90848 -11.72969,-27.3175 -29.07625,-27.3175zM106.23375,150.045c-0.96768,0 -1.61,0.6468 -1.61,1.61v13.81625c0,0.9632 0.63784,1.60125 1.61,1.60125h12.215c0.95872,0 1.60125,-0.63357 1.60125,-1.60125v-13.81625c0,-0.95872 -0.63805,-1.61 -1.60125,-1.61z"></path></g></g></svg>